<?xml version="1.0" encoding="UTF-8" standalone="no"?>
<!DOCTYPE svg PUBLIC "-//W3C//DTD SVG 1.1//EN" "http://www.w3.org/Graphics/SVG/1.1/DTD/svg11.dtd">
<svg width="100%" height="100%" viewBox="0 0 36 36" version="1.1" xmlns="http://www.w3.org/2000/svg" xmlns:xlink="http://www.w3.org/1999/xlink" xml:space="preserve" style="fill-rule:evenodd;clip-rule:evenodd;stroke-linecap:round;stroke-linejoin:round;stroke-miterlimit:1.41421;">
    <g>
        <path d="M36,17.1L36,16.4C35.7,12.6 34.3,9.2 31.8,6.3C31.5,6 31.2,5.6 30.8,5.3C27.3,1.8 23,0 18,0C13.6,0 9.8,1.4 6.5,4.1C6,4.5 5.6,4.9 5.3,5.3C1.8,8.8 0,13.1 0,18C0,22.9 1.8,27.2 5.3,30.7C5.7,31.1 6.1,31.5 6.6,31.9C9.8,34.7 13.6,36 18,36C20.7,36 23.3,35.5 25.5,34.4C26.1,34.1 26.7,33.8 27.3,33.4C28.5,32.7 29.6,31.7 30.7,30.7C31.1,30.3 31.4,30 31.7,29.7C34.6,26.4 36,22.5 36,18C36,17.7 36,17.4 36,17.1ZM31.3,29.3C31,29.6 30.7,29.9 30.4,30.3C29.4,31.3 28.3,32.2 27.1,32.9C26.5,33.2 26,33.6 25.3,33.9C23.1,34.9 20.7,35.4 18,35.4C13.8,35.4 10,34.1 6.9,31.4C6.5,31.1 6.1,30.7 5.7,30.3C2.4,26.9 0.6,22.8 0.6,18C0.6,13.2 2.4,9.1 5.7,5.7C6.1,5.4 6.5,5 6.9,4.6C10,2 13.7,0.6 18,0.6C22.8,0.6 26.9,2.3 30.3,5.7C30.7,6.1 31,6.4 31.2,6.7C33.6,9.5 35,12.8 35.3,16.4L35.3,18C35.4,22.3 34,26.1 31.3,29.3Z" style="fill:rgb(221,46,20);fill-rule:nonzero;"/>
        <g transform="matrix(2.09047,0,0,1.76032,-10.0841,-3.58432)">
            <rect x="9.186" y="10.987" width="1.624" height="6.772" style="fill:none;stroke-width:0.28px;stroke:rgb(221,46,20);"/>
        </g>
        <g transform="matrix(2.09047,0,0,2.71924,-4.85545,-20.7065)">
            <rect x="9.186" y="10.987" width="1.624" height="6.772" style="fill:none;stroke-width:0.23px;stroke:rgb(221,46,20);"/>
        </g>
        <g transform="matrix(2.09047,0,0,2.28996,0.150704,-13.1089)">
            <rect x="9.186" y="10.987" width="1.624" height="6.772" style="fill:none;stroke-width:0.25px;stroke:rgb(221,46,20);"/>
        </g>
        <g transform="matrix(2.09047,0,0,1.37378,5.0943,3.14891)">
            <rect x="9.186" y="10.987" width="1.624" height="6.772" style="fill:none;stroke-width:0.31px;stroke:rgb(221,46,20);"/>
        </g>
    </g>
</svg>
